<svg width="200" height="200" viewBox="-20 -20 240 240" xmlns="http://www.w3.org/2000/svg">

  <!-- 下方灰区 -->
  <path d="M 145,190 L 55,190
           A 45,45 0 0 1 10,145
           A 45,45 0 0 0 100,145
           L 100,100 L 145,100
           A 45,45 0 0 1 145,190 Z"
        fill="#B1ADA1" />

  <!-- 上方橙区 -->
  <path d="M 55,10 L 145,10
           A 45,45 0 0 1 145,100
           L 100,100 L 100,145
           A 45,45 0 0 1 10,145
           L 10,55
           A 45,45 0 0 1 55,10 Z"
        fill="#DA7756" />
</svg>